<?xml version="1.0" standalone="no"?>
<!DOCTYPE svg PUBLIC "-//W3C//DTD SVG 20010904//EN"
 "http://www.w3.org/TR/2001/REC-SVG-20010904/DTD/svg10.dtd">
<svg version="1.0" xmlns="http://www.w3.org/2000/svg"
 width="500.000000pt" height="500.000000pt" viewBox="0 0 500.000000 500.000000"
 preserveAspectRatio="xMidYMid meet">
<metadata>
Created by potrace 1.11, written by Peter Selinger 2001-2013
</metadata>
<g transform="translate(0.000000,500.000000) scale(0.100000,-0.100000)"
fill="#000000" stroke="none">
<path d="M789 3763 c-41 -48 -78 -93 -84 -99 -7 -8 -21 -5 -50 10 -50 26 -155
28 -201 4 -120 -65 -160 -218 -85 -325 17 -24 31 -46 31 -50 0 -6 -125 -157
-155 -187 -14 -13 -14 -16 -2 -16 8 0 26 6 40 13 20 10 96 14 309 16 155 1
285 4 288 6 4 2 5 57 4 122 -7 320 -16 588 -19 591 -1 2 -36 -36 -76 -85z
m-39 -197 c27 -56 25 -119 -4 -182 -37 -79 -108 -124 -195 -124 -45 0 -131 31
-131 47 0 5 61 81 136 171 130 156 137 162 155 146 10 -9 28 -35 39 -58z"/>
<path d="M3252 3288 c-6 -24 -21 -79 -35 -123 -45 -142 -99 -319 -112 -365 -7
-25 -36 -121 -65 -215 -28 -93 -65 -213 -81 -265 -15 -52 -44 -147 -64 -210
-35 -115 -37 -140 -13 -140 27 0 41 20 62 86 l22 68 157 0 157 1 15 -44 c8
-25 15 -55 15 -67 0 -13 6 -26 13 -31 16 -10 307 -11 313 -1 3 5 -11 66 -30
136 -44 155 -116 422 -121 442 -2 8 -16 58 -30 110 -15 52 -28 103 -30 113 -2
9 -6 21 -9 25 -3 5 -7 19 -10 33 -11 62 -132 489 -138 489 -3 0 -11 -19 -16
-42z m-112 -618 c0 -5 0 -11 -1 -12 0 -2 5 -16 11 -32 18 -48 112 -418 107
-423 -6 -5 -259 -5 -265 1 -2 3 26 105 62 228 36 123 66 229 66 236 0 6 5 12
10 12 6 0 10 -4 10 -10z"/>
<path d="M362 3065 c-9 -13 -9 -1326 0 -1323 5 3 132 161 377 472 46 58 86
106 90 106 5 0 7 -584 2 -637 -1 -10 -55 -13 -236 -13 l-235 0 0 25 c0 34 -13
31 -44 -10 -24 -31 -27 -42 -24 -102 l3 -68 270 0 270 0 1 66 c1 66 8 94 24
84 5 -3 11 -1 14 4 8 13 9 1391 1 1399 -11 11 -506 8 -513 -3z"/>
<path d="M2613 2829 l-83 -60 0 -55 c0 -40 -4 -56 -15 -59 -8 -3 -21 -7 -28
-9 -23 -7 -9 -64 17 -68 21 -3 21 -7 26 -248 6 -259 10 -282 55 -322 41 -36
74 -40 122 -17 47 23 87 71 108 129 13 37 13 41 -5 50 -26 14 -40 13 -40 -4 0
-8 -9 -24 -20 -37 -34 -41 -40 -10 -40 229 l0 222 29 0 c22 0 30 5 33 23 7 35
-1 47 -33 47 l-29 0 0 120 c0 66 -3 120 -7 120 -5 -1 -45 -28 -90 -61z"/>
<path d="M1057 2865 c-2 -5 -3 -208 -3 -450 l1 -440 88 -1 c54 0 87 4 88 10 1
6 2 130 3 276 l1 265 102 3 c105 3 116 8 108 48 -2 11 -4 22 -4 25 -1 3 -40 6
-88 6 -49 1 -95 1 -103 2 -13 1 -16 17 -15 90 0 49 3 92 6 96 4 3 53 6 108 7
l102 0 -3 36 -3 37 -192 0 c-126 1 -194 -3 -196 -10z"/>
<path d="M1536 2857 c-49 -49 -44 -115 12 -153 25 -17 39 -20 66 -14 46 10 56
18 72 55 26 62 -12 125 -79 132 -39 5 -49 2 -71 -20z"/>
<path d="M4102 2865 c-44 -19 -65 -68 -51 -119 18 -64 103 -88 153 -41 14 13
27 28 27 32 11 67 -7 108 -56 129 -40 17 -32 17 -73 -1z"/>
<path d="M4435 2681 c-45 -22 -88 -58 -104 -88 -8 -16 -7 -24 9 -38 18 -17 21
-15 69 34 87 89 130 64 136 -79 2 -72 1 -80 -14 -75 -61 25 -74 27 -112 16
-70 -21 -120 -115 -121 -231 -1 -94 17 -147 67 -197 49 -50 90 -56 140 -23 32
21 46 25 44 13 -4 -27 5 -30 84 -29 l82 1 3 289 c2 273 2 291 -18 330 -27 56
-82 87 -164 93 -47 3 -70 -1 -101 -16z m106 -320 c1 -9 2 -72 3 -141 1 -107
-2 -128 -16 -142 -22 -22 -29 -22 -53 -4 -17 12 -20 29 -22 114 -2 100 7 152
34 183 17 20 52 14 54 -10z"/>
<path d="M2213 2650 c-104 -47 -109 -137 -17 -307 86 -158 112 -214 117 -248
9 -61 -38 -74 -89 -24 -26 25 -38 30 -58 25 -34 -8 -33 -18 10 -66 24 -26 48
-42 72 -47 35 -6 45 -7 90 -4 32 2 99 53 116 88 21 44 20 108 -3 158 -10 22
-50 92 -88 156 -39 63 -76 133 -83 154 -11 34 -11 40 5 51 19 14 37 10 78 -19
27 -18 29 -18 47 -2 26 23 13 47 -44 80 -51 30 -96 31 -153 5z"/>
<path d="M3755 2656 c-90 -40 -118 -121 -75 -221 11 -25 46 -94 79 -153 76
-138 100 -204 82 -226 -21 -25 -52 -19 -87 15 -26 25 -38 30 -58 25 -33 -8
-33 -17 1 -57 102 -121 308 -54 304 100 -1 55 -19 97 -94 220 -120 198 -131
231 -76 231 17 0 44 -10 61 -21 l30 -22 21 22 22 22 -35 31 c-59 50 -114 61
-175 34z"/>
<path d="M1555 2650 l-40 -5 0 -330 0 -330 55 -5 c30 -3 70 -3 88 -1 l32 3 0
334 c0 311 -1 334 -17 335 -10 0 -31 1 -48 2 -16 1 -48 0 -70 -3z"/>
<path d="M1769 2650 l-24 -6 0 -334 0 -335 80 -1 c44 0 85 1 90 3 7 2 11 74
11 206 0 180 3 210 23 275 28 92 50 116 101 109 36 -5 38 -3 43 27 6 45 -1 56
-37 56 -39 -1 -68 -23 -100 -80 -14 -25 -26 -43 -27 -40 -1 3 -2 28 -3 57 0
28 -4 55 -9 59 -9 9 -114 12 -148 4z"/>
<path d="M4059 2642 c-5 -19 -6 -639 -2 -654 4 -15 17 -18 89 -18 46 0 85 3
85 8 3 18 5 648 2 658 -4 12 -172 17 -174 6z"/>
<path d="M1069 1870 c-11 -7 -14 -29 -14 -97 0 -74 3 -88 17 -91 13 -3 18 6
20 40 l4 43 8 -42 c12 -63 56 -57 56 7 0 10 5 22 11 26 7 4 10 -6 7 -32 -2
-31 1 -39 15 -42 14 -3 17 4 18 35 2 88 -3 148 -13 155 -18 11 -38 -3 -45 -31
-10 -35 -10 -38 -12 -58 -2 -26 -17 2 -25 49 -7 38 -23 51 -47 38z"/>
<path d="M1285 1864 c-8 -9 -15 -22 -15 -30 0 -8 -9 -40 -20 -71 -11 -32 -20
-63 -20 -70 0 -21 31 -15 37 7 4 14 14 20 34 20 18 0 32 -7 39 -20 6 -11 19
-20 29 -20 17 0 16 7 -13 95 -17 52 -36 97 -43 99 -7 3 -19 -2 -28 -10z m34
-96 c1 -5 -6 -8 -14 -8 -16 0 -19 9 -8 36 6 16 7 16 14 -2 4 -10 8 -22 8 -26z"/>
<path d="M1503 1869 c-5 -5 -8 -30 -5 -54 2 -25 1 -45 -2 -45 -3 0 -17 23 -31
50 -18 35 -31 50 -46 50 -19 0 -20 -5 -17 -92 3 -77 6 -93 20 -96 14 -3 16 5
14 47 -2 28 0 51 4 51 4 0 15 -19 26 -41 21 -48 42 -72 55 -64 11 8 12 192 1
199 -5 3 -13 1 -19 -5z"/>
<path d="M1565 1870 c-3 -6 -5 -43 -4 -85 2 -81 13 -100 61 -109 17 -3 33 2
47 15 18 17 21 31 21 99 0 70 -2 80 -18 80 -15 0 -18 -10 -19 -72 -2 -71 -12
-92 -40 -81 -9 4 -13 26 -13 78 0 55 -4 74 -15 78 -8 4 -17 2 -20 -3z"/>
<path d="M1731 1872 c-7 -2 -11 -37 -11 -99 0 -85 2 -94 18 -91 9 2 18 12 18
23 1 11 2 28 3 39 1 13 7 17 21 13 21 -5 59 17 47 29 -4 4 -17 8 -30 10 -12 1
-25 3 -29 3 -5 1 -8 9 -8 20 0 13 7 18 23 17 32 -3 62 13 49 26 -11 11 -79 17
-101 10z"/>
<path d="M1892 1867 c-8 -11 -62 -166 -62 -180 0 -2 7 -8 15 -11 11 -4 19 3
25 19 12 32 65 36 75 5 5 -16 45 -30 45 -16 0 3 -13 44 -30 93 -16 48 -30 89
-30 89 0 9 -31 10 -38 1z m28 -86 c0 -22 -16 -36 -24 -22 -8 12 3 41 15 41 5
0 9 -9 9 -19z"/>
<path d="M2042 1873 c-18 -7 -43 -60 -44 -93 -3 -94 93 -144 133 -69 18 34 -5
48 -34 21 -19 -18 -26 -20 -40 -9 -21 15 -26 80 -7 102 16 19 39 19 46 0 7
-18 30 -20 40 -4 16 26 -55 65 -94 52z"/>
<path d="M2167 1872 c-26 -5 -20 -29 9 -36 24 -6 25 -9 23 -76 -2 -75 1 -86
25 -77 11 4 14 21 12 72 -1 36 2 71 6 78 4 6 8 8 8 4 0 -4 9 -3 21 4 15 7 18
14 11 21 -11 11 -81 16 -115 10z"/>
<path d="M2306 1873 c-3 -4 -6 -40 -6 -80 0 -65 3 -77 25 -99 18 -18 32 -23
52 -19 43 7 53 30 53 118 0 69 -2 78 -17 75 -14 -3 -18 -15 -18 -71 -1 -69
-12 -91 -42 -80 -14 6 -15 12 -15 95 -1 53 -14 79 -32 61z"/>
<path d="M2472 1872 c-8 -2 -12 -32 -12 -98 0 -86 2 -94 19 -94 15 0 19 7 19
28 -1 51 0 54 22 42 11 -6 20 -17 20 -24 0 -7 11 -23 25 -36 21 -20 25 -21 31
-7 3 9 -4 32 -16 52 -12 19 -17 35 -11 35 16 0 31 43 24 69 -7 27 -79 47 -121
33z m78 -47 c9 -11 6 -16 -12 -26 -27 -15 -28 -15 -38 2 -19 30 27 52 50 24z"/>
<path d="M2633 1873 c-9 -3 -13 -32 -13 -99 0 -87 2 -94 20 -94 18 0 19 7 18
89 -1 94 -5 111 -25 104z"/>
<path d="M2692 1868 c-11 -14 -11 -172 0 -184 15 -15 27 10 24 51 -1 25 0 45
4 45 4 0 15 -18 25 -40 10 -22 26 -47 36 -56 16 -14 18 -14 26 3 15 30 9 173
-7 183 -20 12 -22 8 -22 -44 0 -25 -3 -46 -7 -46 -5 0 -16 18 -26 40 -23 50
-39 65 -53 48z"/>
<path d="M2880 1863 c-36 -24 -40 -33 -40 -85 0 -82 62 -125 130 -88 17 9 21
19 18 53 -3 38 -6 42 -31 43 -36 1 -59 -25 -29 -33 27 -7 29 -29 4 -35 -46
-12 -76 66 -42 107 13 16 49 12 61 -8 4 -5 14 -7 22 -4 25 9 8 45 -25 56 -40
14 -39 14 -68 -6z"/>
<path d="M3112 1867 c-26 -12 -37 -44 -36 -106 1 -75 65 -111 115 -65 11 10
19 23 19 30 0 24 -21 26 -41 5 -10 -11 -26 -18 -34 -15 -8 4 -15 7 -16 8 -9
27 -7 85 4 100 14 19 15 19 42 2 33 -22 53 -9 36 23 -7 12 -15 21 -19 22 -4 0
-16 2 -27 4 -11 2 -30 -2 -43 -8z"/>
<path d="M3274 1869 c-28 -14 -44 -50 -44 -100 0 -54 43 -101 86 -93 43 7 74
47 74 95 0 44 -24 99 -43 99 -6 0 -21 2 -32 5 -11 2 -30 -1 -41 -6z m66 -48
c15 -29 12 -77 -6 -96 -25 -24 -58 1 -62 47 -5 56 45 92 68 49z"/>
<path d="M3422 1872 c-12 -4 -18 -183 -6 -195 15 -14 34 8 34 39 0 45 21 44
46 -1 10 -20 26 -35 36 -35 23 0 23 15 -3 56 -11 19 -16 34 -11 34 14 0 31 46
25 69 -7 27 -79 47 -121 33z m78 -47 c10 -12 8 -16 -11 -24 -28 -10 -44 1 -36
23 8 20 31 21 47 1z"/>
<path d="M3583 1873 c-15 -6 -18 -188 -4 -198 13 -7 26 15 26 45 1 21 6 26 33
28 42 4 66 39 57 81 -4 17 -11 33 -16 36 -12 8 -81 13 -96 8z m75 -47 c10 -11
-8 -36 -27 -36 -20 0 -31 17 -24 37 4 11 39 10 51 -1z"/>
<path d="M3745 1857 c-52 -44 -39 -154 20 -177 33 -13 80 5 94 36 23 51 2 153
-32 155 -6 0 -22 2 -34 5 -13 2 -33 -5 -48 -19z m73 -29 c17 -17 15 -84 -4
-103 -14 -14 -19 -14 -38 -2 -23 16 -31 46 -22 82 5 20 15 27 47 34 3 0 10 -4
17 -11z"/>
<path d="M3903 1873 c-9 -3 -13 -33 -13 -99 0 -88 1 -94 21 -94 15 0 20 6 19
23 -5 57 20 66 45 16 25 -48 97 -60 108 -18 7 27 63 26 70 -1 3 -12 14 -20 25
-20 23 0 24 -9 -17 121 -21 67 -41 88 -59 66 -6 -7 -20 -43 -32 -82 -13 -38
-26 -74 -30 -78 -4 -5 -17 7 -28 25 -19 29 -20 34 -6 44 20 16 26 55 10 76
-13 17 -87 31 -113 21z m84 -47 c9 -9 -8 -24 -32 -28 -14 -2 -21 3 -23 19 -3
18 1 21 23 19 14 -2 29 -6 32 -10z m143 -46 c0 -11 -7 -20 -15 -20 -17 0 -18
2 -9 24 9 23 24 20 24 -4z"/>
<path d="M4190 1872 c-18 -6 -11 -22 15 -32 24 -9 25 -14 25 -85 0 -68 2 -75
20 -75 17 0 19 8 22 78 2 42 7 77 13 77 18 0 34 15 29 28 -4 11 -97 18 -124 9z"/>
<path d="M4440 1871 c-32 -9 -50 -45 -50 -103 0 -36 5 -52 22 -68 12 -11 25
-21 30 -21 4 -1 14 -2 21 -3 6 -1 25 4 40 11 26 13 43 52 40 91 0 6 -1 21 -2
31 -3 44 -53 75 -101 62z m60 -48 c10 -9 2 -85 -11 -97 -22 -22 -59 -3 -60 31
-3 62 12 87 45 77 12 -4 23 -8 26 -11z"/>
<path d="M4330 1774 c0 -86 2 -95 18 -92 14 3 17 17 20 96 2 86 1 92 -18 92
-19 0 -20 -7 -20 -96z"/>
<path d="M4564 1783 c1 -48 5 -94 9 -101 15 -22 25 -3 25 44 0 25 3 48 5 51 3
3 17 -18 31 -46 18 -35 32 -51 46 -51 18 0 19 6 17 92 -2 80 -5 93 -21 96 -15
3 -17 -3 -16 -40 3 -66 1 -67 -28 -13 -17 31 -35 51 -48 53 -19 3 -20 -1 -20
-85z"/>
</g>
</svg>
